<svg width="66.78" height="40" viewBox="0 0 98 59" fill="none" xmlns="http://www.w3.org/2000/svg">
<path d="M76.2899 39.7398L67.1202 28.7266L68.2365 24.1978L95 48.6535L90.1739 45.7167L76.2899 39.7398ZM79.5031 11.3296L77.8744 5.19383L78.8304 5L88.4758 9.40207L90.0742 11.7178L88.4665 14.0473L87.2895 14.8332L79.5031 11.3296ZM67.9126 23.8975L67.1202 28.7266L66.863 13.2661L73.374 16.4014L73.3667 22.1581L68.0715 23.6446L67.8774 23.9844L67.9126 23.8975ZM67.4158 12.7033L77.5111 5.37199L78.8819 11.3962L73.7014 15.695L67.4158 12.7033ZM49.6832 31.3157L41.4777 26.4851L49.7698 29.9452L49.7712 29.9458L49.7727 29.9463L64.2096 35.6337L49.6832 31.3157ZM12.8042 43.7058L34.296 48.2191V48.2892L33.0286 55.3747L32.313 57.1562L30.9156 56.7795L12.9011 43.9269L12.8042 43.7058ZM34.9152 47.9315L33.7213 34.6117L34.1947 34.4915L34.0046 35.0701L35.3556 35.6181L57.4238 58H55.4964L34.9152 47.9315ZM34.266 47.648L20.283 37.1243L33.3367 34.6885L34.266 47.648ZM34.8792 48.5985L55.3985 58.0084L33.2225 57.2764L33.6948 55.545L33.7012 55.5278L34.8792 48.5985ZM12.5916 44.1849L13.1829 45.5343L5 40.0804L5.11351 39.8498H7.84893L12.3849 43.7238L12.5194 44.1334L12.5713 44.1704L12.5916 44.1849Z" fill="none"/>
<path d="M91.1639 11.2851L91.1619 14.7342L87.4158 15.3399L88.7783 14.5794L88.8094 14.5587L88.8304 14.5283L91.011 11.3668L91.1639 11.2851ZM94.102 21.5128L87.7713 15.4563L89.4271 15.3399L91.1619 14.9561L95.6476 21.3202L94.102 21.5128ZM90.6711 6.98378L91.1534 10.4804L90.8579 10.909L85.2192 2.72657L90.6711 6.98378ZM85.2192 2.72657L90.8579 10.909L90.1894 11.8781L88.8043 9.64711L88.7504 9.62304L79.3775 5.41899L85.2192 2.72657ZM84.1007 2.3031L78.8513 5.23679L77.8371 5.43902L77.4267 1.35763L80.1204 1L84.1007 2.3031ZM76.6161 1.94908L77.4738 5.5825L66.7206 12.8146L76.6161 1.94908ZM81.7163 49.7317L77.2218 40.559L90.2899 45.7189L95.7976 49.2992V49.7317H81.7163ZM81.2245 49.6061L34.516 34.9675L34.6471 34.6276L50.1099 31.8828L64.2102 36.047L64.2174 36.0491L76.1728 39.5799L76.4368 39.8349L81.2245 49.6061ZM32.2816 34.6563L32.2788 34.6567L19.5747 37.238L25.3194 33.0746L39.694 27.0035L41.309 26.5436L49.5853 31.5847L32.2816 34.6563ZM64.3345 35.6819L50.1968 30.292L41.309 26.5436L45.2282 26.2846L66.8593 29.1916L75.6329 39.0187L64.3345 35.6819ZM81.7049 50.1169H95.7976V51.0003L78.3724 56.6735L81.7049 50.1169ZM77.0924 57.0307L58.871 58L81.1472 50.2947L77.0924 57.0307ZM34.9732 35.5147L80.9982 49.9389L59.1139 58H58.0075L34.9732 35.5147ZM84.4075 39.8093L68.4086 24.1041L73.7384 22.8994L97 42.9448L95.7976 49.0445L84.4075 39.8093ZM33.8768 47.3856L34.084 47.6955L12.1433 43.179L8.77674 40.4947L15.039 37.9517L19.5747 37.238L33.8768 47.3856ZM13.0058 38.7175L8.44498 40.2135L7.99109 39.7611H5.0417L1.34761 37.3066L13.0058 38.7175ZM13.2316 46.0145L15.9386 54.1091H15.5425L10.7339 50.275L1 37.6397L13.2316 46.0145ZM13.4621 45.4861L13.4565 45.4691L12.6407 44.0054L30.9188 56.7812L16.3536 54.1322L13.4621 45.4861Z" fill="none"/>
<path d="M67.1202 28.7266L76.2899 39.7398L90.1739 45.7167L95 48.6535L68.2365 24.1978L67.1202 28.7266ZM67.1202 28.7266L67.9126 23.8975L67.8774 23.9844L68.0715 23.6446L73.3667 22.1581L73.374 16.4014L66.863 13.2661L67.1202 28.7266ZM90.8579 10.909L91.1534 10.4804L90.6711 6.98378L85.2192 2.72657M90.8579 10.909L85.2192 2.72657M90.8579 10.909L90.1894 11.8781L88.8043 9.64711L88.7504 9.62304L79.3775 5.41899L85.2192 2.72657M19.5747 37.238L32.2788 34.6567L32.2816 34.6563L49.5853 31.5847L41.309 26.5436M19.5747 37.238L25.3194 33.0746L39.694 27.0035L41.309 26.5436M19.5747 37.238L15.039 37.9517L8.77674 40.4947L12.1433 43.179L34.084 47.6955L33.8768 47.3856L19.5747 37.238ZM41.309 26.5436L50.1968 30.292L64.3345 35.6819L75.6329 39.0187L66.8593 29.1916L45.2282 26.2846L41.309 26.5436ZM79.5031 11.3296L77.8744 5.19383L78.8304 5L88.4758 9.40207L90.0742 11.7178L88.4665 14.0473L87.2895 14.8332L79.5031 11.3296ZM67.4158 12.7033L77.5111 5.37199L78.8819 11.3962L73.7014 15.695L67.4158 12.7033ZM49.6832 31.3157L41.4777 26.4851L49.7698 29.9452L49.7712 29.9458L49.7727 29.9463L64.2096 35.6337L49.6832 31.3157ZM12.8042 43.7058L34.296 48.2191V48.2892L33.0286 55.3747L32.313 57.1562L30.9156 56.7795L12.9011 43.9269L12.8042 43.7058ZM34.9152 47.9315L33.7213 34.6117L34.1947 34.4915L34.0046 35.0701L35.3556 35.6181L57.4238 58H55.4964L34.9152 47.9315ZM34.266 47.648L20.283 37.1243L33.3367 34.6885L34.266 47.648ZM34.8792 48.5985L55.3985 58.0084L33.2225 57.2764L33.6948 55.545L33.7012 55.5278L34.8792 48.5985ZM12.5916 44.1849L13.1829 45.5343L5 40.0804L5.11351 39.8498H7.84893L12.3849 43.7238L12.5194 44.1334L12.5713 44.1704L12.5916 44.1849ZM91.1639 11.2851L91.1619 14.7342L87.4158 15.3399L88.7783 14.5794L88.8094 14.5587L88.8304 14.5283L91.011 11.3668L91.1639 11.2851ZM94.102 21.5128L87.7713 15.4563L89.4271 15.3399L91.1619 14.9561L95.6476 21.3202L94.102 21.5128ZM84.1007 2.3031L78.8513 5.23679L77.8371 5.43902L77.4267 1.35763L80.1204 1L84.1007 2.3031ZM76.6161 1.94908L77.4738 5.5825L66.7206 12.8146L76.6161 1.94908ZM81.7163 49.7317L77.2218 40.559L90.2899 45.7189L95.7976 49.2992V49.7317H81.7163ZM81.2245 49.6061L34.516 34.9675L34.6471 34.6276L50.1099 31.8828L64.2102 36.047L64.2174 36.0491L76.1728 39.5799L76.4368 39.8349L81.2245 49.6061ZM81.7049 50.1169H95.7976V51.0003L78.3724 56.6735L81.7049 50.1169ZM77.0924 57.0307L58.871 58L81.1472 50.2947L77.0924 57.0307ZM34.9732 35.5147L80.9982 49.9389L59.1139 58H58.0075L34.9732 35.5147ZM84.4075 39.8093L68.4086 24.1041L73.7384 22.8994L97 42.9448L95.7976 49.0445L84.4075 39.8093ZM13.0058 38.7175L8.44498 40.2135L7.99109 39.7611H5.0417L1.34761 37.3066L13.0058 38.7175ZM13.2316 46.0145L15.9386 54.1091H15.5425L10.7339 50.275L1 37.6397L13.2316 46.0145ZM13.4621 45.4861L13.4565 45.4691L12.6407 44.0054L30.9188 56.7812L16.3536 54.1322L13.4621 45.4861Z" stroke="url(#paint0_linear_29_666)"/>
<defs>
<linearGradient id="paint0_linear_29_666" x1="36.14" y1="-43.5914" x2="123.935" y2="94.2767" gradientUnits="userSpaceOnUse">
<stop offset="0.106691" stop-color="#2C3531"/>
<stop offset="0.310243" stop-color="#2C3531"/>
<stop offset="0.671845" stop-color="#2C3531"/>
<stop offset="0.900293" stop-color="#2C3531"/>
</linearGradient>
</defs>
</svg>
