<svg width="473" height="724" viewBox="0 0 473 724" fill="none" xmlns="http://www.w3.org/2000/svg">
<rect width="473" height="724" fill=""/>
<path d="M470 3H3V721H470V3Z" stroke="currentColor" stroke-width="6"/>
<path d="M408 74H65V649H408V74Z" stroke="currentColor" stroke-width="2"/>
<path d="M391 92H82V631H391V92Z" stroke="currentColor" stroke-width="2"/>
<path d="M96.9102 43.9425C96.762 45.1274 96.688 46.073 96.688 46.7794C96.688 47.4743 96.7734 48.118 96.9443 48.7104C97.1152 49.3029 97.3602 49.8157 97.6792 50.2486C98.3628 51.1714 99.2287 51.6329 100.277 51.6329C102.282 51.6329 103.285 50.5278 103.285 48.3175C103.285 46.5401 102.254 44.6545 100.191 42.6606L98.4141 40.9347C96.8532 39.4307 95.7879 38.2231 95.2183 37.3116C94.0903 35.5114 93.5264 33.7227 93.5264 31.9453C93.5264 30.4984 93.9935 29.2851 94.9277 28.3053C96.0557 27.109 97.6792 26.5107 99.7983 26.5107C100.63 26.5107 101.257 26.5506 101.678 26.6304C102.464 26.7785 102.988 26.8526 103.25 26.8526C103.911 26.8526 104.424 26.6476 104.789 26.2374C104.925 26.0893 105.073 25.8955 105.233 25.6562C106.065 26.1235 106.48 27.8382 106.48 30.8004C106.48 32.6917 106.292 34.0873 105.917 34.9874C105.791 35.295 105.649 35.4887 105.489 35.5685C105.307 33.8481 104.749 32.3099 103.814 30.9541C102.721 29.359 101.456 28.5616 100.021 28.5616C98.79 28.5616 98.0324 29.1256 97.7476 30.2535C97.6678 30.5725 97.6279 30.9712 97.6279 31.4497C97.6279 31.9168 97.7703 32.4523 98.0552 33.0562C98.34 33.66 98.7103 34.2638 99.166 34.8677C99.6331 35.4601 100.169 36.0584 100.772 36.6622C102.595 38.5307 103.803 39.7952 104.396 40.4562C104.999 41.117 105.535 41.8006 106.002 42.5069C107.027 44.0906 107.54 45.6229 107.54 47.104C107.54 48.8927 106.845 50.374 105.455 51.5475C104.02 52.7438 102.174 53.3419 99.918 53.3419C98.0495 53.3419 96.443 52.8747 95.0986 51.9404C93.6175 50.915 92.877 49.5592 92.877 47.8731C93.3213 46.2895 94.2897 45.1273 95.7822 44.3867C96.181 44.1817 96.557 44.0336 96.9102 43.9425ZM109.283 34.543C109.01 33.8822 108.873 33.1017 108.873 32.2017C108.873 31.3016 108.907 30.5668 108.976 29.9972C109.044 29.4161 109.135 28.892 109.249 28.4249C109.522 27.3767 109.859 26.8526 110.257 26.8526H125.313C125.974 26.8526 126.419 27.8324 126.646 29.792C126.703 30.3389 126.732 30.9028 126.732 31.4839C126.732 32.8511 126.584 33.8708 126.288 34.543C125.308 31.501 124.037 29.5527 122.477 28.6982C122.123 28.4932 121.776 28.3906 121.434 28.3906C121.092 28.3906 120.825 28.4819 120.631 28.6642C120.437 28.8351 120.278 29.1141 120.152 29.5015C119.947 30.1851 119.845 31.0055 119.845 31.9625V38.3712L119.862 43.6007V48.5566C119.862 49.6732 120.004 50.4992 120.289 51.0347C120.585 51.5588 120.882 51.9575 121.178 52.231C121.485 52.5044 121.844 52.7607 122.254 53H113.521C114.342 52.3279 114.866 51.7752 115.094 51.3424C115.515 50.5562 115.726 49.6276 115.726 48.5566V33.1587C115.726 31.37 115.658 30.2192 115.521 29.7065C115.384 29.1825 115.219 28.8351 115.025 28.6642C114.832 28.4819 114.564 28.3906 114.222 28.3906C113.88 28.3906 113.533 28.4932 113.18 28.6982C112.826 28.8919 112.479 29.154 112.137 29.4844C111.807 29.8034 111.488 30.1795 111.18 30.6124C110.884 31.034 110.611 31.4725 110.36 31.9282C109.87 32.8283 109.511 33.6999 109.283 34.543ZM142.574 46.6768C142.882 47.0983 143.036 47.7079 143.036 48.5055C143.036 49.303 143.001 49.9409 142.933 50.4194C142.865 50.8866 142.757 51.3138 142.608 51.7012C142.267 52.5671 141.817 53 141.258 53H127.416C128.293 52.5329 128.874 52.0828 129.159 51.6499C129.694 50.841 129.962 49.8156 129.962 48.5737C129.951 45.5317 129.945 42.7804 129.945 40.3194V31.3301C129.945 29.6325 129.677 28.4021 129.142 27.6388C128.937 27.3653 128.692 27.1033 128.407 26.8526H141.258C142.033 27.1261 142.563 28.0831 142.848 29.7236C142.927 30.1795 142.967 30.6238 142.967 31.0567C142.967 31.9454 142.836 32.6518 142.574 33.1758L141.651 31.3301C141.036 30.1224 140.153 29.3135 139.002 28.9033C138.364 28.6755 137.647 28.5616 136.849 28.5616C136.052 28.5616 135.482 28.59 135.14 28.647C134.798 28.6925 134.536 28.8122 134.354 29.0059C134.058 29.3363 133.91 29.9686 133.91 30.9028C133.91 31.8257 133.932 32.4694 133.978 32.834C134.024 33.1872 134.132 33.4778 134.303 33.7057C134.656 34.15 135.402 34.3722 136.542 34.3722H141.908C141.646 35.033 141.378 35.5 141.104 35.7734C140.558 36.3203 139.817 36.5938 138.883 36.5938C138.518 36.5938 138.171 36.5539 137.84 36.4741C137.225 36.326 136.684 36.252 136.217 36.252C135.75 36.252 135.362 36.2975 135.055 36.3887C134.758 36.4684 134.525 36.5995 134.354 36.7817C134.058 37.1007 133.91 37.6762 133.91 38.5079V46.6597C133.91 48.8016 134.029 50.0719 134.269 50.4707C134.508 50.8695 134.798 51.1087 135.14 51.1885C135.482 51.2568 136.052 51.291 136.849 51.291C137.647 51.291 138.37 51.1771 139.02 50.9492C139.669 50.7214 140.21 50.4023 140.643 49.9922C141.087 49.582 141.452 49.0979 141.737 48.5396C142.022 47.9699 142.301 47.349 142.574 46.6768ZM152.145 36.7646C151.279 36.7646 150.846 37.5451 150.846 39.106V41.2593C150.846 45.2241 150.886 47.6737 150.965 48.6079C151.056 49.5308 151.142 50.1746 151.222 50.5392C151.313 50.9037 151.432 51.2284 151.581 51.5132C151.82 51.9803 152.298 52.476 153.016 53H145.753C146.174 52.1569 146.431 51.4391 146.522 50.8467C146.613 50.2542 146.681 49.6277 146.727 48.9669C146.818 47.6224 146.864 45.8167 146.864 43.5494C146.864 40.8036 146.818 38.2971 146.727 36.0299L146.539 31.3301C146.493 30.1452 146.391 29.3192 146.231 28.8521C145.981 28.1115 145.571 27.4451 145.001 26.8526H154.554C157.129 26.8526 158.992 27.126 160.143 27.6729C161.362 28.2425 161.971 29.2166 161.971 30.5952C161.971 32.2814 161.248 33.6771 159.801 34.7822C158.092 36.1038 155.54 36.7646 152.145 36.7646ZM156.4 33.6372C156.764 33.2726 157.032 32.891 157.203 32.4922C157.374 32.082 157.459 31.7061 157.459 31.3643C157.459 31.0111 157.408 30.6637 157.306 30.3218C157.215 29.98 157.027 29.6782 156.742 29.416C156.104 28.8464 155.01 28.5616 153.46 28.5616C152.526 28.5616 151.917 28.6755 151.632 28.9033C151.108 29.3363 150.846 30.1851 150.846 31.4497C150.846 32.8739 150.96 33.7568 151.188 34.0986C151.415 34.429 151.677 34.6456 151.974 34.7481C152.27 34.8393 152.72 34.8848 153.324 34.8848C153.939 34.8848 154.514 34.7652 155.05 34.526C155.597 34.2867 156.047 33.9904 156.4 33.6372ZM176.566 42.8316L176.549 38.1489C176.549 37.5109 176.446 37.0781 176.241 36.8502C175.865 36.4286 175.17 36.2178 174.156 36.2178H171.456C170.043 36.2178 169.269 36.6166 169.132 37.4142C169.098 37.642 169.081 37.8869 169.081 38.1489L169.063 43.276C169.063 47.6966 169.291 50.465 169.747 51.5816C169.929 52.0146 170.214 52.4874 170.602 53H164.193C164.557 52.1341 164.768 51.4107 164.825 50.8297C164.894 50.2486 164.962 49.5308 165.03 48.6763C165.156 46.8876 165.218 44.8424 165.218 42.541C165.218 40.2396 165.213 38.656 165.201 37.7901C165.19 36.9129 165.178 36.0584 165.167 35.2267C165.087 31.7745 164.979 29.7065 164.842 29.0229C164.706 28.328 164.592 27.8608 164.5 27.6216L164.193 26.8526H170.602C169.781 27.7641 169.326 28.9945 169.234 30.5439C169.2 31.0111 169.183 31.501 169.183 32.0137C169.183 32.5264 169.229 32.9309 169.32 33.2271C169.422 33.512 169.588 33.7228 169.815 33.8595C170.123 34.0646 170.847 34.167 171.986 34.167H173.609C174.771 34.167 175.489 34.0815 175.763 33.9106C176.218 33.6144 176.446 32.9707 176.446 31.9795C176.446 29.5527 175.968 27.8439 175.011 26.8526H181.419C181.078 27.6046 180.867 28.2995 180.787 28.9375C180.719 29.5755 180.667 30.1908 180.633 30.7832C180.599 31.3643 180.565 32.0422 180.531 32.8169C180.497 33.5916 180.468 34.3949 180.445 35.2267C180.411 37.1635 180.394 38.918 180.394 40.4902C180.394 46.8818 180.633 50.7954 181.112 52.231C181.192 52.4702 181.294 52.7267 181.419 53H175.011C175.58 52.2367 175.928 51.5815 176.053 51.0347C176.179 50.4764 176.275 49.8214 176.344 49.0694C176.492 47.6225 176.566 45.5431 176.566 42.8316ZM198.937 46.6768C199.244 47.0983 199.398 47.7079 199.398 48.5055C199.398 49.303 199.364 49.9409 199.295 50.4194C199.227 50.8866 199.119 51.3138 198.971 51.7012C198.629 52.5671 198.179 53 197.621 53H183.778C184.655 52.5329 185.236 52.0828 185.521 51.6499C186.056 50.841 186.324 49.8156 186.324 48.5737C186.313 45.5317 186.307 42.7804 186.307 40.3194V31.3301C186.307 29.6325 186.039 28.4021 185.504 27.6388C185.299 27.3653 185.054 27.1033 184.769 26.8526H197.621C198.395 27.1261 198.925 28.0831 199.21 29.7236C199.29 30.1795 199.33 30.6238 199.33 31.0567C199.33 31.9454 199.199 32.6518 198.937 33.1758L198.014 31.3301C197.398 30.1224 196.515 29.3135 195.365 28.9033C194.727 28.6755 194.009 28.5616 193.211 28.5616C192.414 28.5616 191.844 28.59 191.502 28.647C191.161 28.6925 190.899 28.8122 190.716 29.0059C190.42 29.3363 190.272 29.9686 190.272 30.9028C190.272 31.8257 190.295 32.4694 190.34 32.834C190.386 33.1872 190.494 33.4778 190.665 33.7057C191.018 34.15 191.764 34.3722 192.904 34.3722H198.27C198.008 35.033 197.74 35.5 197.467 35.7734C196.92 36.3203 196.179 36.5938 195.245 36.5938C194.881 36.5938 194.533 36.5539 194.203 36.4741C193.587 36.326 193.046 36.252 192.579 36.252C192.112 36.252 191.725 36.2975 191.417 36.3887C191.121 36.4684 190.887 36.5995 190.716 36.7817C190.42 37.1007 190.272 37.6762 190.272 38.5079V46.6597C190.272 48.8016 190.392 50.0719 190.631 50.4707C190.87 50.8695 191.161 51.1087 191.502 51.1885C191.844 51.2568 192.414 51.291 193.211 51.291C194.009 51.291 194.732 51.1771 195.382 50.9492C196.031 50.7214 196.572 50.4023 197.005 49.9922C197.45 49.582 197.814 49.0979 198.099 48.5396C198.384 47.9699 198.663 47.349 198.937 46.6768ZM206.371 34.3892C206.348 35.5741 206.336 36.9242 206.336 38.4395C206.336 40.5928 206.376 43.0595 206.456 45.8395C206.536 48.608 206.598 50.1859 206.644 50.5732C206.69 50.9492 206.747 51.2796 206.815 51.5645C206.929 52.0316 207.105 52.5101 207.345 53H202.765C203.106 52.305 203.312 51.6272 203.38 50.9664C203.46 50.2942 203.522 49.6277 203.568 48.9669C203.659 47.6224 203.705 45.8167 203.705 43.5494C203.705 40.8036 203.659 38.2971 203.568 36.0299L203.38 31.3301C203.312 29.5983 203.038 28.3679 202.56 27.6388C202.366 27.3653 202.127 27.1033 201.842 26.8526H207.157C207.829 28.4021 208.541 29.9402 209.293 31.4669L211.617 36.0127L216.607 45.1899C216.619 44.4722 216.625 43.7031 216.625 42.8829V40.2169C216.625 34.5203 216.277 30.4072 215.582 27.8779C215.445 27.4108 215.297 27.0691 215.138 26.8526L220.282 26.8354C219.712 27.9748 219.353 31.1821 219.205 36.4571C219.182 37.2774 219.171 38.0635 219.171 38.8154L219.188 40.251V47.2236C219.188 50.1745 219.211 52.0999 219.256 53H216.488L211.532 43.7715L206.371 34.3892ZM239.303 43.9425C239.155 45.1274 239.081 46.073 239.081 46.7794C239.081 47.4743 239.166 48.118 239.337 48.7104C239.508 49.3029 239.753 49.8157 240.072 50.2486C240.755 51.1714 241.621 51.6329 242.669 51.6329C244.675 51.6329 245.677 50.5278 245.677 48.3175C245.677 46.5401 244.646 44.6545 242.584 42.6606L240.807 40.9347C239.246 39.4307 238.181 38.2231 237.611 37.3116C236.483 35.5114 235.919 33.7227 235.919 31.9453C235.919 30.4984 236.386 29.2851 237.32 28.3053C238.448 27.109 240.072 26.5107 242.191 26.5107C243.023 26.5107 243.649 26.5506 244.071 26.6304C244.857 26.7785 245.381 26.8526 245.643 26.8526C246.304 26.8526 246.817 26.6476 247.181 26.2374C247.318 26.0893 247.466 25.8955 247.625 25.6562C248.457 26.1235 248.873 27.8382 248.873 30.8004C248.873 32.6917 248.685 34.0873 248.309 34.9874C248.184 35.295 248.041 35.4887 247.882 35.5685C247.7 33.8481 247.141 32.3099 246.207 30.9541C245.113 29.359 243.849 28.5616 242.413 28.5616C241.183 28.5616 240.425 29.1256 240.14 30.2535C240.06 30.5725 240.021 30.9712 240.021 31.4497C240.021 31.9168 240.163 32.4523 240.448 33.0562C240.733 33.66 241.103 34.2638 241.559 34.8677C242.026 35.4601 242.561 36.0584 243.165 36.6622C244.988 38.5307 246.196 39.7952 246.788 40.4562C247.392 41.117 247.927 41.8006 248.395 42.5069C249.42 44.0906 249.933 45.6229 249.933 47.104C249.933 48.8927 249.238 50.374 247.848 51.5475C246.412 52.7438 244.566 53.3419 242.311 53.3419C240.442 53.3419 238.836 52.8747 237.491 51.9404C236.01 50.915 235.27 49.5592 235.27 47.8731C235.714 46.2895 236.682 45.1273 238.175 44.3867C238.574 44.1817 238.95 44.0336 239.303 43.9425ZM274.61 29.5015C274.61 28.3963 274.257 27.5134 273.551 26.8526H279.618C278.923 27.4565 278.359 28.2995 277.926 29.3818C277.778 29.7464 277.63 30.1396 277.481 30.5611C277.333 30.9827 277.162 31.5807 276.969 32.3555L276.354 35.0215C276.114 36.0469 275.869 37.1635 275.619 38.3712C274.308 44.6375 273.568 48.1409 273.397 48.8814C273.237 49.6106 273.158 50.3112 273.158 50.9834C273.158 51.6442 273.306 52.3222 273.602 53.0172L267.621 53C267.894 52.5786 268.054 52.1854 268.099 51.8209C268.156 51.4449 268.185 50.9892 268.185 50.4537C268.185 49.9182 268.093 49.1207 267.911 48.0611C267.729 47.0016 267.49 45.7938 267.193 44.438L265.023 35.2095C263.291 42.8429 262.306 47.2123 262.066 48.3175C261.839 49.4226 261.725 50.3055 261.725 50.9664C261.725 51.6272 261.867 52.3108 262.152 53.0172L256.17 53C256.546 52.3962 256.734 51.5872 256.734 50.5732C256.734 48.8871 255.982 44.9678 254.479 38.8154C252.918 32.3669 251.59 28.3793 250.497 26.8526H256.563C256.358 27.3539 256.256 27.9578 256.256 28.6642C256.256 29.3591 256.313 30.1224 256.427 30.9541C256.552 31.7858 256.712 32.7257 256.905 33.7739C257.11 34.8221 257.338 35.9443 257.589 37.1406L259.913 47.3605C260.118 46.4832 260.335 45.5033 260.562 44.4209C261.201 41.3219 261.633 39.1515 261.861 37.9097L262.442 34.6455C262.784 32.6403 262.955 31.2845 262.955 30.5781C262.955 29.8717 262.91 29.1938 262.818 28.5444C262.739 27.895 262.522 27.3312 262.169 26.8526H268.561C268.082 27.7527 267.843 28.7838 267.843 29.9459C267.843 30.8118 268.116 32.5662 268.663 35.2095L270.646 44.4893L271.363 47.5826L272.799 40.7467C273.038 39.5162 273.266 38.3027 273.482 37.1064L274.063 33.791C274.428 31.615 274.61 30.1851 274.61 29.5015ZM292.572 53C292.72 52.2822 292.794 51.7127 292.794 51.291C292.794 50.8582 292.783 50.5334 292.76 50.3169C292.748 50.1004 292.726 49.8727 292.691 49.6334C292.669 49.3827 292.634 49.1092 292.589 48.813C292.555 48.5054 292.521 48.1522 292.486 47.7534C292.224 45.0304 291.296 42.7918 289.701 41.0372C288.994 40.2625 288.231 39.6757 287.411 39.277C286.59 38.8668 285.912 38.6616 285.377 38.6616C284.853 38.6616 284.448 38.6958 284.164 38.7642C283.526 40.6782 283.207 42.6777 283.207 44.7627C283.207 46.6084 283.303 47.987 283.497 48.8984C283.805 50.2656 284.278 51.6386 284.916 53.0172H279.806C280.079 52.3336 280.216 50.8979 280.216 48.7104C280.216 46.5117 280.381 44.4609 280.711 42.5582C281.042 40.6441 281.469 38.9408 281.993 37.4482C282.529 35.9557 283.121 34.6512 283.771 33.5347C284.431 32.4067 285.086 31.4269 285.736 30.5952C286.397 29.7521 287.018 29.0343 287.599 28.4419C288.18 27.8381 288.664 27.3084 289.051 26.8526H294.435C293.945 27.4109 293.7 28.1912 293.7 29.1938C293.7 29.6496 293.774 30.3958 293.922 31.4326L294.349 34.543C295.91 45.2982 297.306 51.4506 298.536 53H292.572ZM284.864 36.9526C285.309 36.7817 285.776 36.6964 286.266 36.6964C286.756 36.6964 287.194 36.7306 287.582 36.7989C287.98 36.8673 288.373 36.9811 288.761 37.1406C289.592 37.4596 290.287 37.9666 290.846 38.6616C290.287 35.7336 289.946 33.9448 289.82 33.2954L289.222 30.3048L288.248 31.4669C286.881 33.1075 285.753 34.936 284.864 36.9526ZM304.671 34.3892C304.649 35.5741 304.637 36.9242 304.637 38.4395C304.637 40.5928 304.677 43.0595 304.757 45.8395C304.837 48.608 304.899 50.1859 304.945 50.5732C304.99 50.9492 305.047 51.2796 305.116 51.5645C305.23 52.0316 305.406 52.5101 305.646 53H301.065C301.407 52.305 301.612 51.6272 301.681 50.9664C301.76 50.2942 301.823 49.6277 301.869 48.9669C301.96 47.6224 302.005 45.8167 302.005 43.5494C302.005 40.8036 301.96 38.2971 301.869 36.0299L301.681 31.3301C301.612 29.5983 301.339 28.3679 300.86 27.6388C300.667 27.3653 300.427 27.1033 300.143 26.8526H305.458C306.13 28.4021 306.842 29.9402 307.594 31.4669L309.918 36.0127L314.908 45.1899C314.92 44.4722 314.925 43.7031 314.925 42.8829V40.2169C314.925 34.5203 314.578 30.4072 313.883 27.8779C313.746 27.4108 313.598 27.0691 313.438 26.8526L318.583 26.8354C318.013 27.9748 317.654 31.1821 317.506 36.4571C317.483 37.2774 317.472 38.0635 317.472 38.8154L317.489 40.251V47.2236C317.489 50.1745 317.512 52.0999 317.557 53H314.789L309.833 43.7715L304.671 34.3892ZM326.051 43.9425C325.903 45.1274 325.829 46.073 325.829 46.7794C325.829 47.4743 325.914 48.118 326.085 48.7104C326.256 49.3029 326.501 49.8157 326.82 50.2486C327.503 51.1714 328.369 51.6329 329.417 51.6329C331.423 51.6329 332.425 50.5278 332.425 48.3175C332.425 46.5401 331.394 44.6545 329.332 42.6606L327.555 40.9347C325.994 39.4307 324.929 38.2231 324.359 37.3116C323.231 35.5114 322.667 33.7227 322.667 31.9453C322.667 30.4984 323.134 29.2851 324.068 28.3053C325.196 27.109 326.82 26.5107 328.939 26.5107C329.771 26.5107 330.397 26.5506 330.819 26.6304C331.605 26.7785 332.129 26.8526 332.391 26.8526C333.052 26.8526 333.565 26.6476 333.929 26.2374C334.066 26.0893 334.214 25.8955 334.374 25.6562C335.205 26.1235 335.621 27.8382 335.621 30.8004C335.621 32.6917 335.433 34.0873 335.057 34.9874C334.932 35.295 334.789 35.4887 334.63 35.5685C334.448 33.8481 333.889 32.3099 332.955 30.9541C331.861 29.359 330.597 28.5616 329.161 28.5616C327.931 28.5616 327.173 29.1256 326.888 30.2535C326.808 30.5725 326.769 30.9712 326.769 31.4497C326.769 31.9168 326.911 32.4523 327.196 33.0562C327.481 33.66 327.851 34.2638 328.307 34.8677C328.774 35.4601 329.309 36.0584 329.913 36.6622C331.736 38.5307 332.944 39.7952 333.536 40.4562C334.14 41.117 334.675 41.8006 335.143 42.5069C336.168 44.0906 336.681 45.6229 336.681 47.104C336.681 48.8927 335.986 50.374 334.596 51.5475C333.16 52.7438 331.314 53.3419 329.059 53.3419C327.19 53.3419 325.584 52.8747 324.239 51.9404C322.758 50.915 322.018 49.5592 322.018 47.8731C322.462 46.2895 323.43 45.1273 324.923 44.3867C325.322 44.1817 325.698 44.0336 326.051 43.9425ZM349.105 51.6329C351.292 51.6329 352.705 48.9669 353.343 43.6348C353.56 41.8347 353.668 39.7156 353.668 37.2774C353.668 31.239 352.136 28.2197 349.071 28.2197C346.006 28.2197 344.474 31.239 344.474 37.2774C344.474 44.3982 345.391 48.8927 347.225 50.7612C347.795 51.3424 348.421 51.6329 349.105 51.6329ZM349.071 53.3419C346.04 53.3419 343.756 51.9177 342.218 49.0694C340.737 46.3237 339.996 42.393 339.996 37.2774C339.996 31.9568 341.631 28.6072 344.901 27.2285C346.052 26.75 347.442 26.5107 349.071 26.5107C353.742 26.5107 356.596 28.5843 357.633 32.7314C357.975 34.0645 358.146 35.7791 358.146 37.8755C358.146 39.9718 357.963 42.017 357.599 44.0107C357.234 45.9932 356.676 47.6795 355.924 49.0694C354.386 51.9177 352.101 53.3419 349.071 53.3419ZM366.468 34.3892C366.445 35.5741 366.434 36.9242 366.434 38.4395C366.434 40.5928 366.474 43.0595 366.554 45.8395C366.633 48.608 366.696 50.1859 366.742 50.5732C366.787 50.9492 366.844 51.2796 366.913 51.5645C367.027 52.0316 367.203 52.5101 367.442 53H362.862C363.204 52.305 363.409 51.6272 363.478 50.9664C363.557 50.2942 363.62 49.6277 363.666 48.9669C363.757 47.6224 363.802 45.8167 363.802 43.5494C363.802 40.8036 363.757 38.2971 363.666 36.0299L363.478 31.3301C363.409 29.5983 363.136 28.3679 362.657 27.6388C362.464 27.3653 362.224 27.1033 361.939 26.8526H367.254C367.927 28.4021 368.639 29.9402 369.391 31.4669L371.715 36.0127L376.705 45.1899C376.716 44.4722 376.722 43.7031 376.722 42.8829V40.2169C376.722 34.5203 376.375 30.4072 375.68 27.8779C375.543 27.4108 375.395 27.0691 375.235 26.8526L380.379 26.8354C379.81 27.9748 379.451 31.1821 379.303 36.4571C379.28 37.2774 379.269 38.0635 379.269 38.8154L379.286 40.251V47.2236C379.286 50.1745 379.308 52.0999 379.354 53H376.585L371.629 43.7715L366.468 34.3892Z" fill="currentColor"/>
<path d="M89.6221 679.229C89.6221 678.535 89.4001 677.98 88.9561 677.564H92.7695C92.3327 677.944 91.9782 678.474 91.7061 679.154C91.613 679.383 91.5199 679.631 91.4268 679.896C91.3337 680.16 91.2262 680.536 91.1045 681.023L90.7178 682.699C90.5674 683.344 90.4134 684.046 90.2559 684.805C89.4323 688.743 88.9668 690.946 88.8594 691.411C88.7591 691.869 88.709 692.31 88.709 692.732C88.709 693.148 88.8021 693.574 88.9883 694.011L85.2285 694C85.4004 693.735 85.5007 693.488 85.5293 693.259C85.5651 693.022 85.583 692.736 85.583 692.399C85.583 692.063 85.5257 691.562 85.4111 690.896C85.2965 690.229 85.1462 689.47 84.96 688.618L83.5957 682.817C82.5072 687.616 81.8877 690.362 81.7373 691.057C81.5941 691.751 81.5225 692.306 81.5225 692.722C81.5225 693.137 81.612 693.567 81.791 694.011L78.0312 694C78.2676 693.62 78.3857 693.112 78.3857 692.475C78.3857 691.415 77.9131 688.951 76.9678 685.084C75.9867 681.031 75.1523 678.524 74.4648 677.564H78.2783C78.1494 677.88 78.085 678.259 78.085 678.703C78.085 679.14 78.1208 679.62 78.1924 680.143C78.2712 680.665 78.3714 681.256 78.4932 681.915C78.6221 682.574 78.7653 683.279 78.9229 684.031L80.3838 690.455C80.5127 689.904 80.6488 689.288 80.792 688.607C81.193 686.66 81.4652 685.295 81.6084 684.515L81.9736 682.463C82.1885 681.202 82.2959 680.35 82.2959 679.906C82.2959 679.462 82.2673 679.036 82.21 678.628C82.1598 678.22 82.0238 677.865 81.8018 677.564H85.8193C85.5186 678.13 85.3682 678.778 85.3682 679.509C85.3682 680.053 85.54 681.156 85.8838 682.817L87.1299 688.65L87.5811 690.595L88.4834 686.298C88.6338 685.524 88.777 684.762 88.9131 684.01L89.2783 681.926C89.5075 680.558 89.6221 679.659 89.6221 679.229ZM101.954 690.025C102.147 690.29 102.244 690.674 102.244 691.175C102.244 691.676 102.223 692.077 102.18 692.378C102.137 692.672 102.069 692.94 101.976 693.184C101.761 693.728 101.478 694 101.127 694H92.4258C92.9772 693.706 93.3424 693.424 93.5215 693.151C93.8581 692.643 94.0264 691.998 94.0264 691.218C94.0192 689.306 94.0156 687.576 94.0156 686.029V680.379C94.0156 679.312 93.8473 678.538 93.5107 678.059C93.3818 677.887 93.2279 677.722 93.0488 677.564H101.127C101.614 677.736 101.947 678.338 102.126 679.369C102.176 679.656 102.201 679.935 102.201 680.207C102.201 680.766 102.119 681.21 101.954 681.539L101.374 680.379C100.987 679.62 100.432 679.111 99.709 678.854C99.3079 678.71 98.8568 678.639 98.3555 678.639C97.8542 678.639 97.4961 678.657 97.2812 678.692C97.0664 678.721 96.9017 678.796 96.7871 678.918C96.6009 679.126 96.5078 679.523 96.5078 680.11C96.5078 680.69 96.5221 681.095 96.5508 681.324C96.5794 681.546 96.6475 681.729 96.7549 681.872C96.9769 682.151 97.446 682.291 98.1621 682.291H101.535C101.37 682.706 101.202 683 101.03 683.172C100.687 683.516 100.221 683.688 99.6338 683.688C99.4046 683.688 99.1862 683.662 98.9785 683.612C98.5918 683.519 98.2516 683.473 97.958 683.473C97.6644 683.473 97.4209 683.501 97.2275 683.559C97.0413 683.609 96.8945 683.691 96.7871 683.806C96.6009 684.006 96.5078 684.368 96.5078 684.891V690.015C96.5078 691.361 96.583 692.16 96.7334 692.41C96.8838 692.661 97.0664 692.811 97.2812 692.861C97.4961 692.904 97.8542 692.926 98.3555 692.926C98.8568 692.926 99.3116 692.854 99.7197 692.711C100.128 692.568 100.468 692.367 100.74 692.109C101.02 691.852 101.249 691.547 101.428 691.196C101.607 690.838 101.782 690.448 101.954 690.025ZM114.071 679.917C114.071 681.12 113.19 682.108 111.429 682.882C112.89 683.154 113.842 683.816 114.286 684.869C114.429 685.22 114.501 685.686 114.501 686.266C114.501 686.839 114.415 687.462 114.243 688.135C114.078 688.801 113.813 689.431 113.448 690.025C113.09 690.613 112.632 691.15 112.073 691.637C111.515 692.124 110.845 692.543 110.064 692.894C108.424 693.631 106.398 694 103.984 694C104.214 693.456 104.346 693.001 104.382 692.636C104.425 692.271 104.461 691.88 104.489 691.465C104.547 690.62 104.575 689.485 104.575 688.06C104.575 686.334 104.547 684.758 104.489 683.333L104.371 680.379C104.342 679.634 104.278 679.115 104.178 678.821C104.02 678.356 103.762 677.937 103.404 677.564H109.087C110.82 677.564 112.073 677.736 112.847 678.08C113.663 678.438 114.071 679.05 114.071 679.917ZM107.078 685.481L107.089 690.938C107.089 691.347 107.132 691.655 107.218 691.862C107.311 692.07 107.493 692.174 107.766 692.174C108.868 692.174 109.789 691.651 110.526 690.605C111.285 689.531 111.665 688.135 111.665 686.416C111.665 685.564 111.475 684.93 111.096 684.515C110.594 683.963 109.696 683.688 108.399 683.688C108.106 683.688 107.873 683.702 107.701 683.73C107.529 683.752 107.397 683.82 107.304 683.935C107.153 684.121 107.078 684.636 107.078 685.481ZM110.623 681.754C110.845 681.539 111.003 681.31 111.096 681.066C111.189 680.823 111.235 680.597 111.235 680.39C111.235 680.175 111.203 679.96 111.139 679.745C111.081 679.53 110.963 679.34 110.784 679.176C110.383 678.818 109.696 678.639 108.722 678.639C107.984 678.639 107.544 678.714 107.4 678.864C107.257 679.007 107.168 679.201 107.132 679.444C107.096 679.688 107.078 680.003 107.078 680.39C107.078 680.769 107.089 681.088 107.11 681.346C107.132 681.596 107.189 681.808 107.282 681.979C107.461 682.33 107.826 682.506 108.378 682.506C108.937 682.506 109.395 682.434 109.753 682.291C110.118 682.148 110.408 681.969 110.623 681.754ZM126.672 680.454L126.683 691.153C126.69 691.562 126.736 691.869 126.822 692.077C126.908 692.285 127.087 692.389 127.359 692.389C128.634 692.389 129.626 691.579 130.335 689.961C131.022 688.385 131.366 686.201 131.366 683.408C131.366 681.94 131.194 680.826 130.851 680.067C130.385 679.043 129.576 678.531 128.423 678.531C127.685 678.531 127.23 678.617 127.059 678.789C126.894 678.961 126.786 679.176 126.736 679.434C126.693 679.684 126.672 680.024 126.672 680.454ZM123.686 694C123.915 693.456 124.047 693.001 124.083 692.636C124.126 692.271 124.162 691.88 124.19 691.465C124.248 690.62 124.276 689.485 124.276 688.06C124.276 686.334 124.248 684.758 124.19 683.333L124.072 680.379C124.044 679.634 123.979 679.115 123.879 678.821C123.721 678.356 123.464 677.937 123.105 677.564H129.003C131.452 677.564 133.053 678.528 133.805 680.454C134.07 681.134 134.202 681.958 134.202 682.925C134.202 688.332 132.369 691.776 128.702 693.259C127.463 693.76 126.006 694.011 124.33 694.011C124.223 694.011 124.115 694.011 124.008 694.011C123.9 694.011 123.793 694.007 123.686 694ZM145.03 690.025C145.224 690.29 145.32 690.674 145.32 691.175C145.32 691.676 145.299 692.077 145.256 692.378C145.213 692.672 145.145 692.94 145.052 693.184C144.837 693.728 144.554 694 144.203 694H135.502C136.053 693.706 136.419 693.424 136.598 693.151C136.934 692.643 137.103 691.998 137.103 691.218C137.095 689.306 137.092 687.576 137.092 686.029V680.379C137.092 679.312 136.924 678.538 136.587 678.059C136.458 677.887 136.304 677.722 136.125 677.564H144.203C144.69 677.736 145.023 678.338 145.202 679.369C145.252 679.656 145.277 679.935 145.277 680.207C145.277 680.766 145.195 681.21 145.03 681.539L144.45 680.379C144.063 679.62 143.508 679.111 142.785 678.854C142.384 678.71 141.933 678.639 141.432 678.639C140.93 678.639 140.572 678.657 140.357 678.692C140.143 678.721 139.978 678.796 139.863 678.918C139.677 679.126 139.584 679.523 139.584 680.11C139.584 680.69 139.598 681.095 139.627 681.324C139.656 681.546 139.724 681.729 139.831 681.872C140.053 682.151 140.522 682.291 141.238 682.291H144.611C144.447 682.706 144.278 683 144.106 683.172C143.763 683.516 143.297 683.688 142.71 683.688C142.481 683.688 142.262 683.662 142.055 683.612C141.668 683.519 141.328 683.473 141.034 683.473C140.741 683.473 140.497 683.501 140.304 683.559C140.118 683.609 139.971 683.691 139.863 683.806C139.677 684.006 139.584 684.368 139.584 684.891V690.015C139.584 691.361 139.659 692.16 139.81 692.41C139.96 692.661 140.143 692.811 140.357 692.861C140.572 692.904 140.93 692.926 141.432 692.926C141.933 692.926 142.388 692.854 142.796 692.711C143.204 692.568 143.544 692.367 143.816 692.109C144.096 691.852 144.325 691.547 144.504 691.196C144.683 690.838 144.858 690.448 145.03 690.025ZM149.585 677.564C149.463 677.958 149.402 678.331 149.402 678.682C149.402 679.276 149.506 680.135 149.714 681.26C150.588 685.65 151.096 688.185 151.239 688.865C151.54 690.269 151.723 691.121 151.787 691.422C151.859 691.715 151.923 691.998 151.98 692.271C153.312 690.688 154.233 688.529 154.741 685.793C154.927 684.79 155.021 683.845 155.021 682.957C155.021 682.069 155.003 681.382 154.967 680.895C154.931 680.408 154.87 679.964 154.784 679.562C154.612 678.76 154.34 678.091 153.968 677.554H157.717C157.566 677.983 157.488 678.413 157.48 678.843C157.473 679.272 157.459 679.928 157.438 680.809C157.416 681.682 157.305 682.724 157.104 683.935C156.904 685.145 156.653 686.226 156.353 687.179C156.052 688.131 155.719 688.969 155.354 689.692C154.988 690.416 154.623 691.049 154.258 691.594C153.893 692.138 153.545 692.604 153.216 692.99L152.378 694H148.994C149.102 693.728 149.155 693.463 149.155 693.205C149.155 692.783 149.098 692.163 148.983 691.347C147.759 683.168 146.71 678.574 145.836 677.564H149.585ZM167.761 690.025C167.954 690.29 168.051 690.674 168.051 691.175C168.051 691.676 168.029 692.077 167.986 692.378C167.943 692.672 167.875 692.94 167.782 693.184C167.567 693.728 167.285 694 166.934 694H158.232C158.784 693.706 159.149 693.424 159.328 693.151C159.665 692.643 159.833 691.998 159.833 691.218C159.826 689.306 159.822 687.576 159.822 686.029V680.379C159.822 679.312 159.654 678.538 159.317 678.059C159.188 677.887 159.035 677.722 158.855 677.564H166.934C167.421 677.736 167.754 678.338 167.933 679.369C167.983 679.656 168.008 679.935 168.008 680.207C168.008 680.766 167.925 681.21 167.761 681.539L167.181 680.379C166.794 679.62 166.239 679.111 165.516 678.854C165.115 678.71 164.663 678.639 164.162 678.639C163.661 678.639 163.303 678.657 163.088 678.692C162.873 678.721 162.708 678.796 162.594 678.918C162.408 679.126 162.314 679.523 162.314 680.11C162.314 680.69 162.329 681.095 162.357 681.324C162.386 681.546 162.454 681.729 162.562 681.872C162.784 682.151 163.253 682.291 163.969 682.291H167.342C167.177 682.706 167.009 683 166.837 683.172C166.493 683.516 166.028 683.688 165.44 683.688C165.211 683.688 164.993 683.662 164.785 683.612C164.398 683.519 164.058 683.473 163.765 683.473C163.471 683.473 163.228 683.501 163.034 683.559C162.848 683.609 162.701 683.691 162.594 683.806C162.408 684.006 162.314 684.368 162.314 684.891V690.015C162.314 691.361 162.39 692.16 162.54 692.41C162.69 692.661 162.873 692.811 163.088 692.861C163.303 692.904 163.661 692.926 164.162 692.926C164.663 692.926 165.118 692.854 165.526 692.711C165.935 692.568 166.275 692.367 166.547 692.109C166.826 691.852 167.055 691.547 167.234 691.196C167.413 690.838 167.589 690.448 167.761 690.025ZM178.363 690.025C178.557 690.305 178.653 690.641 178.653 691.035C178.653 691.429 178.625 691.769 178.567 692.056C178.517 692.342 178.446 692.614 178.353 692.872C178.138 693.438 177.866 693.814 177.536 694H168.899C169.465 693.649 169.834 693.345 170.006 693.087C170.335 692.6 170.5 691.97 170.5 691.196C170.493 689.291 170.489 687.569 170.489 686.029V680.4C170.489 679.362 170.317 678.599 169.974 678.112C169.852 677.933 169.701 677.751 169.522 677.564H173.938C173.515 678.173 173.275 678.8 173.218 679.444C173.203 679.659 173.196 679.896 173.196 680.153V689.993C173.196 691.332 173.268 692.134 173.411 692.399C173.554 692.657 173.726 692.811 173.927 692.861C174.127 692.904 174.432 692.926 174.84 692.926C175.248 692.926 175.635 692.854 176 692.711C176.365 692.568 176.691 692.367 176.978 692.109C177.465 691.665 177.926 690.971 178.363 690.025ZM185.475 693.141C186.85 693.141 187.738 691.465 188.139 688.113C188.275 686.982 188.343 685.65 188.343 684.117C188.343 680.322 187.38 678.424 185.453 678.424C183.527 678.424 182.563 680.322 182.563 684.117C182.563 688.593 183.14 691.418 184.293 692.593C184.651 692.958 185.045 693.141 185.475 693.141ZM185.453 694.215C183.548 694.215 182.112 693.32 181.146 691.529C180.215 689.803 179.749 687.333 179.749 684.117C179.749 680.773 180.777 678.667 182.832 677.801C183.555 677.5 184.429 677.35 185.453 677.35C188.389 677.35 190.183 678.653 190.835 681.26C191.05 682.098 191.157 683.175 191.157 684.493C191.157 685.811 191.043 687.096 190.813 688.35C190.584 689.596 190.233 690.656 189.761 691.529C188.794 693.32 187.358 694.215 185.453 694.215ZM197.731 683.795C197.187 683.795 196.915 684.285 196.915 685.267V686.62C196.915 689.112 196.94 690.652 196.99 691.239C197.048 691.819 197.101 692.224 197.151 692.453C197.209 692.682 197.284 692.886 197.377 693.065C197.527 693.359 197.828 693.671 198.279 694H193.714C193.979 693.47 194.14 693.019 194.197 692.646C194.255 692.274 194.298 691.88 194.326 691.465C194.383 690.62 194.412 689.485 194.412 688.06C194.412 686.334 194.383 684.758 194.326 683.333L194.208 680.379C194.179 679.634 194.115 679.115 194.015 678.821C193.857 678.356 193.599 677.937 193.241 677.564H199.246C200.865 677.564 202.035 677.736 202.759 678.08C203.525 678.438 203.908 679.05 203.908 679.917C203.908 680.977 203.453 681.854 202.544 682.549C201.47 683.38 199.866 683.795 197.731 683.795ZM200.406 681.829C200.635 681.6 200.804 681.36 200.911 681.109C201.019 680.852 201.072 680.615 201.072 680.4C201.072 680.178 201.04 679.96 200.976 679.745C200.918 679.53 200.8 679.34 200.621 679.176C200.22 678.818 199.533 678.639 198.559 678.639C197.971 678.639 197.588 678.71 197.409 678.854C197.08 679.126 196.915 679.659 196.915 680.454C196.915 681.349 196.987 681.904 197.13 682.119C197.273 682.327 197.438 682.463 197.624 682.527C197.81 682.585 198.093 682.613 198.473 682.613C198.859 682.613 199.221 682.538 199.558 682.388C199.901 682.237 200.184 682.051 200.406 681.829ZM213.737 690.025C213.931 690.29 214.027 690.674 214.027 691.175C214.027 691.676 214.006 692.077 213.963 692.378C213.92 692.672 213.852 692.94 213.759 693.184C213.544 693.728 213.261 694 212.91 694H204.209C204.76 693.706 205.126 693.424 205.305 693.151C205.641 692.643 205.81 691.998 205.81 691.218C205.802 689.306 205.799 687.576 205.799 686.029V680.379C205.799 679.312 205.631 678.538 205.294 678.059C205.165 677.887 205.011 677.722 204.832 677.564H212.91C213.397 677.736 213.73 678.338 213.909 679.369C213.959 679.656 213.984 679.935 213.984 680.207C213.984 680.766 213.902 681.21 213.737 681.539L213.157 680.379C212.771 679.62 212.215 679.111 211.492 678.854C211.091 678.71 210.64 678.639 210.139 678.639C209.637 678.639 209.279 678.657 209.064 678.692C208.85 678.721 208.685 678.796 208.57 678.918C208.384 679.126 208.291 679.523 208.291 680.11C208.291 680.69 208.305 681.095 208.334 681.324C208.363 681.546 208.431 681.729 208.538 681.872C208.76 682.151 209.229 682.291 209.945 682.291H213.318C213.154 682.706 212.985 683 212.813 683.172C212.47 683.516 212.004 683.688 211.417 683.688C211.188 683.688 210.969 683.662 210.762 683.612C210.375 683.519 210.035 683.473 209.741 683.473C209.448 683.473 209.204 683.501 209.011 683.559C208.825 683.609 208.678 683.691 208.57 683.806C208.384 684.006 208.291 684.368 208.291 684.891V690.015C208.291 691.361 208.366 692.16 208.517 692.41C208.667 692.661 208.85 692.811 209.064 692.861C209.279 692.904 209.637 692.926 210.139 692.926C210.64 692.926 211.095 692.854 211.503 692.711C211.911 692.568 212.251 692.367 212.523 692.109C212.803 691.852 213.032 691.547 213.211 691.196C213.39 690.838 213.565 690.448 213.737 690.025ZM220.365 683.795C219.535 683.795 219.119 684.285 219.119 685.267C219.119 689.334 219.187 691.73 219.323 692.453C219.402 692.89 219.502 693.216 219.624 693.431L219.946 694H216.133C216.362 693.456 216.494 693.001 216.53 692.636C216.573 692.271 216.609 691.88 216.638 691.465C216.695 690.62 216.724 689.485 216.724 688.06C216.724 686.334 216.695 684.758 216.638 683.333L216.52 680.379C216.491 679.634 216.426 679.115 216.326 678.821C216.169 678.356 215.911 677.937 215.553 677.564H221.235C222.968 677.564 224.222 677.736 224.995 678.08C225.812 678.438 226.22 679.05 226.22 679.917C226.22 680.676 225.937 681.389 225.371 682.055C224.841 682.671 224.146 683.161 223.287 683.526C223.395 686.276 224.257 688.915 225.876 691.443C226.571 692.539 227.28 693.391 228.003 694H223.975C223.273 693.04 222.625 691.096 222.03 688.167C221.83 687.15 221.697 686.305 221.633 685.632C221.576 684.959 221.525 684.554 221.482 684.418C221.447 684.275 221.386 684.16 221.3 684.074C221.128 683.888 220.816 683.795 220.365 683.795ZM222.836 681.883C223.036 681.668 223.176 681.439 223.255 681.195C223.341 680.952 223.384 680.719 223.384 680.497C223.384 680.268 223.352 680.042 223.287 679.82C223.23 679.591 223.112 679.391 222.933 679.219C222.539 678.832 221.851 678.639 220.87 678.639C220.505 678.639 220.208 678.653 219.979 678.682C219.757 678.71 219.581 678.789 219.452 678.918C219.23 679.133 219.119 679.681 219.119 680.562C219.119 681.335 219.201 681.829 219.366 682.044C219.66 682.424 220.104 682.613 220.698 682.613C221.293 682.613 221.747 682.545 222.062 682.409C222.385 682.266 222.643 682.09 222.836 681.883ZM239.024 675.631C238.867 676.096 238.777 676.773 238.756 677.661C238.734 678.542 238.72 679.283 238.713 679.885C238.706 680.479 238.702 681.12 238.702 681.808L238.681 683.967C238.681 684.712 238.681 685.428 238.681 686.115V688.07C238.681 691.178 238.709 693.026 238.767 693.613C238.853 694.465 238.938 695.024 239.024 695.289H236.5C236.643 694.795 236.722 694.301 236.736 693.807C236.751 693.305 236.765 692.886 236.779 692.55C236.794 692.213 236.804 691.809 236.812 691.336C236.819 690.863 236.826 690.355 236.833 689.811C236.84 689.259 236.844 688.679 236.844 688.07V686.212C236.844 685.46 236.84 684.712 236.833 683.967V681.808C236.826 681.12 236.815 680.479 236.801 679.885C236.794 679.283 236.786 678.793 236.779 678.413C236.772 678.034 236.761 677.718 236.747 677.468C236.74 677.21 236.726 676.974 236.704 676.759C236.675 676.379 236.607 676.003 236.5 675.631H239.024ZM258.006 688.489L258.06 684.364C258.06 681.478 257.952 679.634 257.737 678.832C257.637 678.445 257.515 678.162 257.372 677.983C257.236 677.804 257.125 677.665 257.039 677.564H260.562L260.337 677.865C260.015 678.338 259.836 678.871 259.8 679.466C259.764 680.06 259.735 680.662 259.714 681.271C259.7 681.879 259.685 682.484 259.671 683.086C259.657 684.096 259.649 685.224 259.649 686.47V687.78C259.649 690.093 259.277 691.751 258.532 692.754C257.795 693.728 256.591 694.215 254.923 694.215C251.693 694.215 250.085 692.142 250.1 687.995L250.11 679.949C250.11 678.818 249.91 678.023 249.509 677.564H253.58C253.158 678.073 252.946 678.796 252.946 679.734C252.946 680.279 252.943 680.837 252.936 681.41L252.893 684.848C252.885 685.413 252.882 685.997 252.882 686.599C252.882 688.754 252.946 690.122 253.075 690.702C253.204 691.275 253.362 691.723 253.548 692.045C253.978 692.775 254.615 693.141 255.46 693.141C256.763 693.141 257.565 692.188 257.866 690.283C257.959 689.717 258.006 689.119 258.006 688.489ZM267.04 683.419C267.763 682.266 268.297 681.113 268.641 679.96C268.812 679.387 268.898 678.95 268.898 678.649C268.898 678.349 268.83 677.987 268.694 677.564H271.917C271.716 677.844 271.545 678.116 271.401 678.381L268.522 683.773L267.856 685.073C269.776 688.919 270.85 691.049 271.079 691.465L271.605 692.432C271.734 692.654 271.853 692.854 271.96 693.033L272.615 694H268.157C268.336 693.484 268.426 693.112 268.426 692.883C268.426 692.124 268.093 690.985 267.427 689.467C267.069 688.658 266.675 687.816 266.245 686.942C264.748 689.549 264 691.515 264 692.84C264 693.169 264.079 693.556 264.236 694H260.853C261.024 693.821 261.211 693.538 261.411 693.151L265.375 685.277L263.087 681.109C262.865 680.694 262.668 680.318 262.496 679.981C262.331 679.638 262.185 679.348 262.056 679.111L261.69 678.488C261.497 678.166 261.282 677.858 261.046 677.564H265.504C265.332 677.98 265.246 678.32 265.246 678.585C265.246 679.28 265.407 679.999 265.729 680.744C265.844 681.016 265.973 681.296 266.116 681.582L267.04 683.419ZM275.247 692.904C275.125 693.513 275.064 693.986 275.064 694.322C275.064 694.659 275.111 694.981 275.204 695.289H272.68L272.862 694.849C273.127 694.233 273.317 693.674 273.432 693.173L276.611 678.016C276.74 677.385 276.805 676.913 276.805 676.598C276.805 676.283 276.755 675.96 276.654 675.631H279.179L278.996 676.071C278.731 676.687 278.52 677.335 278.362 678.016L275.247 692.904ZM289.824 688.489L289.878 684.364C289.878 681.478 289.771 679.634 289.556 678.832C289.455 678.445 289.334 678.162 289.19 677.983C289.054 677.804 288.943 677.665 288.857 677.564H292.381L292.155 677.865C291.833 678.338 291.654 678.871 291.618 679.466C291.582 680.06 291.554 680.662 291.532 681.271C291.518 681.879 291.504 682.484 291.489 683.086C291.475 684.096 291.468 685.224 291.468 686.47V687.78C291.468 690.093 291.095 691.751 290.351 692.754C289.613 693.728 288.41 694.215 286.741 694.215C283.511 694.215 281.904 692.142 281.918 687.995L281.929 679.949C281.929 678.818 281.728 678.023 281.327 677.564H285.398C284.976 678.073 284.765 678.796 284.765 679.734C284.765 680.279 284.761 680.837 284.754 681.41L284.711 684.848C284.704 685.413 284.7 685.997 284.7 686.599C284.7 688.754 284.765 690.122 284.894 690.702C285.022 691.275 285.18 691.723 285.366 692.045C285.796 692.775 286.433 693.141 287.278 693.141C288.582 693.141 289.384 692.188 289.685 690.283C289.778 689.717 289.824 689.119 289.824 688.489ZM298.461 677.564C298.196 678.23 298.042 678.9 297.999 679.573C297.956 680.239 297.924 680.812 297.902 681.292C297.881 681.772 297.863 682.27 297.849 682.785C297.827 683.988 297.816 685.084 297.816 686.072C297.816 690.126 297.967 692.611 298.268 693.527C298.318 693.685 298.382 693.842 298.461 694H294.755C294.977 693.513 295.109 693.073 295.152 692.679C295.195 692.285 295.235 691.816 295.271 691.271C295.356 690.147 295.399 688.851 295.399 687.383C295.399 685.915 295.396 684.912 295.389 684.375C295.382 683.831 295.371 683.301 295.356 682.785C295.306 680.271 295.156 678.674 294.905 677.994L294.755 677.564H298.461ZM311.674 680.454L311.685 691.153C311.692 691.562 311.738 691.869 311.824 692.077C311.91 692.285 312.089 692.389 312.361 692.389C313.636 692.389 314.628 691.579 315.337 689.961C316.024 688.385 316.368 686.201 316.368 683.408C316.368 681.94 316.196 680.826 315.853 680.067C315.387 679.043 314.578 678.531 313.425 678.531C312.687 678.531 312.232 678.617 312.061 678.789C311.896 678.961 311.788 679.176 311.738 679.434C311.695 679.684 311.674 680.024 311.674 680.454ZM308.688 694C308.917 693.456 309.049 693.001 309.085 692.636C309.128 692.271 309.164 691.88 309.192 691.465C309.25 690.62 309.278 689.485 309.278 688.06C309.278 686.334 309.25 684.758 309.192 683.333L309.074 680.379C309.046 679.634 308.981 679.115 308.881 678.821C308.723 678.356 308.465 677.937 308.107 677.564H314.005C316.454 677.564 318.055 678.528 318.807 680.454C319.072 681.134 319.204 681.958 319.204 682.925C319.204 688.332 317.371 691.776 313.704 693.259C312.465 693.76 311.008 694.011 309.332 694.011C309.225 694.011 309.117 694.011 309.01 694.011C308.902 694.011 308.795 694.007 308.688 694ZM330.032 690.025C330.226 690.29 330.322 690.674 330.322 691.175C330.322 691.676 330.301 692.077 330.258 692.378C330.215 692.672 330.147 692.94 330.054 693.184C329.839 693.728 329.556 694 329.205 694H320.504C321.055 693.706 321.421 693.424 321.6 693.151C321.936 692.643 322.104 691.998 322.104 691.218C322.097 689.306 322.094 687.576 322.094 686.029V680.379C322.094 679.312 321.925 678.538 321.589 678.059C321.46 677.887 321.306 677.722 321.127 677.564H329.205C329.692 677.736 330.025 678.338 330.204 679.369C330.254 679.656 330.279 679.935 330.279 680.207C330.279 680.766 330.197 681.21 330.032 681.539L329.452 680.379C329.065 679.62 328.51 679.111 327.787 678.854C327.386 678.71 326.935 678.639 326.434 678.639C325.932 678.639 325.574 678.657 325.359 678.692C325.145 678.721 324.98 678.796 324.865 678.918C324.679 679.126 324.586 679.523 324.586 680.11C324.586 680.69 324.6 681.095 324.629 681.324C324.658 681.546 324.726 681.729 324.833 681.872C325.055 682.151 325.524 682.291 326.24 682.291H329.613C329.449 682.706 329.28 683 329.108 683.172C328.765 683.516 328.299 683.688 327.712 683.688C327.483 683.688 327.264 683.662 327.057 683.612C326.67 683.519 326.33 683.473 326.036 683.473C325.743 683.473 325.499 683.501 325.306 683.559C325.119 683.609 324.973 683.691 324.865 683.806C324.679 684.006 324.586 684.368 324.586 684.891V690.015C324.586 691.361 324.661 692.16 324.812 692.41C324.962 692.661 325.145 692.811 325.359 692.861C325.574 692.904 325.932 692.926 326.434 692.926C326.935 692.926 327.39 692.854 327.798 692.711C328.206 692.568 328.546 692.367 328.818 692.109C329.098 691.852 329.327 691.547 329.506 691.196C329.685 690.838 329.86 690.448 330.032 690.025ZM334.544 688.307C334.451 689.051 334.404 689.646 334.404 690.09C334.404 690.527 334.458 690.931 334.565 691.304C334.673 691.676 334.827 691.998 335.027 692.271C335.457 692.851 336.001 693.141 336.66 693.141C337.921 693.141 338.551 692.446 338.551 691.057C338.551 689.939 337.903 688.754 336.606 687.501L335.489 686.416C334.508 685.471 333.839 684.712 333.48 684.139C332.771 683.007 332.417 681.883 332.417 680.766C332.417 679.856 332.711 679.093 333.298 678.478C334.007 677.726 335.027 677.35 336.359 677.35C336.882 677.35 337.276 677.375 337.541 677.425C338.035 677.518 338.365 677.564 338.529 677.564C338.945 677.564 339.267 677.436 339.496 677.178C339.582 677.085 339.675 676.963 339.775 676.812C340.298 677.106 340.56 678.184 340.56 680.046C340.56 681.235 340.441 682.112 340.205 682.678C340.126 682.871 340.037 682.993 339.937 683.043C339.822 681.962 339.471 680.995 338.884 680.143C338.196 679.14 337.401 678.639 336.499 678.639C335.726 678.639 335.249 678.993 335.07 679.702C335.02 679.903 334.995 680.153 334.995 680.454C334.995 680.748 335.085 681.084 335.264 681.464C335.443 681.843 335.675 682.223 335.962 682.603C336.256 682.975 336.592 683.351 336.972 683.73C338.118 684.905 338.877 685.7 339.249 686.115C339.629 686.531 339.965 686.96 340.259 687.404C340.903 688.4 341.226 689.363 341.226 690.294C341.226 691.418 340.789 692.349 339.915 693.087C339.013 693.839 337.853 694.215 336.435 694.215C335.26 694.215 334.25 693.921 333.405 693.334C332.474 692.689 332.009 691.837 332.009 690.777C332.288 689.782 332.897 689.051 333.835 688.586C334.086 688.457 334.322 688.364 334.544 688.307ZM347.381 677.564C347.116 678.23 346.962 678.9 346.919 679.573C346.876 680.239 346.844 680.812 346.822 681.292C346.801 681.772 346.783 682.27 346.769 682.785C346.747 683.988 346.736 685.084 346.736 686.072C346.736 690.126 346.887 692.611 347.188 693.527C347.238 693.685 347.302 693.842 347.381 694H343.675C343.897 693.513 344.029 693.073 344.072 692.679C344.115 692.285 344.155 691.816 344.19 691.271C344.276 690.147 344.319 688.851 344.319 687.383C344.319 685.915 344.316 684.912 344.309 684.375C344.301 683.831 344.291 683.301 344.276 682.785C344.226 680.271 344.076 678.674 343.825 677.994L343.675 677.564H347.381ZM357.414 688.747L357.403 687.351C357.403 686.541 357.325 686.004 357.167 685.739C357.009 685.467 356.845 685.27 356.673 685.148C356.501 685.02 356.29 684.891 356.039 684.762H360.755C360.304 685.177 360.017 685.707 359.896 686.352C359.781 686.967 359.724 687.92 359.724 689.209C359.724 691.715 359.874 693.384 360.175 694.215C360.075 694.222 359.974 694.226 359.874 694.226H359.584C356.433 694.226 354.045 693.212 352.419 691.186C350.865 689.245 350.088 686.491 350.088 682.925C350.088 681.163 350.607 679.813 351.646 678.875C352.605 678.001 353.891 677.564 355.502 677.564L357.393 677.586C358.388 677.586 359.083 677.464 359.477 677.221C359.641 677.113 359.781 676.977 359.896 676.812C360.075 677.156 360.164 677.629 360.164 678.23C360.164 678.832 360.146 679.319 360.11 679.691C360.075 680.057 360.021 680.415 359.949 680.766C359.799 681.51 359.566 682.09 359.251 682.506C358.979 681.074 358.639 680.085 358.23 679.541C357.772 678.939 357.056 678.639 356.082 678.639C354.85 678.639 353.98 679.133 353.472 680.121C353.106 680.844 352.924 681.94 352.924 683.408C352.924 685.421 353.235 687.351 353.858 689.198C354.295 690.494 354.84 691.415 355.491 691.959C355.828 692.245 356.175 692.389 356.533 692.389C356.898 692.389 357.131 692.285 357.231 692.077C357.332 691.869 357.385 691.515 357.393 691.014C357.407 690.025 357.414 689.27 357.414 688.747ZM365.17 682.302C365.156 683.047 365.148 683.895 365.148 684.848C365.148 686.201 365.174 687.752 365.224 689.499C365.274 691.239 365.313 692.231 365.342 692.475C365.37 692.711 365.406 692.919 365.449 693.098C365.521 693.391 365.632 693.692 365.782 694H362.903C363.118 693.563 363.247 693.137 363.29 692.722C363.34 692.299 363.38 691.88 363.408 691.465C363.465 690.62 363.494 689.485 363.494 688.06C363.494 686.334 363.465 684.758 363.408 683.333L363.29 680.379C363.247 679.29 363.075 678.517 362.774 678.059C362.653 677.887 362.502 677.722 362.323 677.564H365.664C366.087 678.538 366.534 679.505 367.007 680.465L368.468 683.322L371.604 689.091C371.612 688.64 371.615 688.156 371.615 687.641V685.965C371.615 682.384 371.397 679.799 370.96 678.209C370.874 677.915 370.781 677.701 370.681 677.564L373.914 677.554C373.556 678.27 373.33 680.286 373.237 683.602C373.223 684.117 373.216 684.611 373.216 685.084L373.227 685.986V690.369C373.227 692.224 373.241 693.434 373.27 694H371.529L368.414 688.199L365.17 682.302ZM384.688 690.025C384.882 690.29 384.979 690.674 384.979 691.175C384.979 691.676 384.957 692.077 384.914 692.378C384.871 692.672 384.803 692.94 384.71 693.184C384.495 693.728 384.212 694 383.861 694H375.16C375.712 693.706 376.077 693.424 376.256 693.151C376.592 692.643 376.761 691.998 376.761 691.218C376.754 689.306 376.75 687.576 376.75 686.029V680.379C376.75 679.312 376.582 678.538 376.245 678.059C376.116 677.887 375.962 677.722 375.783 677.564H383.861C384.348 677.736 384.681 678.338 384.86 679.369C384.91 679.656 384.936 679.935 384.936 680.207C384.936 680.766 384.853 681.21 384.688 681.539L384.108 680.379C383.722 679.62 383.167 679.111 382.443 678.854C382.042 678.71 381.591 678.639 381.09 678.639C380.589 678.639 380.23 678.657 380.016 678.692C379.801 678.721 379.636 678.796 379.521 678.918C379.335 679.126 379.242 679.523 379.242 680.11C379.242 680.69 379.257 681.095 379.285 681.324C379.314 681.546 379.382 681.729 379.489 681.872C379.711 682.151 380.18 682.291 380.896 682.291H384.27C384.105 682.706 383.937 683 383.765 683.172C383.421 683.516 382.955 683.688 382.368 683.688C382.139 683.688 381.921 683.662 381.713 683.612C381.326 683.519 380.986 683.473 380.692 683.473C380.399 683.473 380.155 683.501 379.962 683.559C379.776 683.609 379.629 683.691 379.521 683.806C379.335 684.006 379.242 684.368 379.242 684.891V690.015C379.242 691.361 379.317 692.16 379.468 692.41C379.618 692.661 379.801 692.811 380.016 692.861C380.23 692.904 380.589 692.926 381.09 692.926C381.591 692.926 382.046 692.854 382.454 692.711C382.862 692.568 383.202 692.367 383.475 692.109C383.754 691.852 383.983 691.547 384.162 691.196C384.341 690.838 384.517 690.448 384.688 690.025ZM391.316 683.795C390.486 683.795 390.07 684.285 390.07 685.267C390.07 689.334 390.138 691.73 390.274 692.453C390.353 692.89 390.453 693.216 390.575 693.431L390.897 694H387.084C387.313 693.456 387.446 693.001 387.481 692.636C387.524 692.271 387.56 691.88 387.589 691.465C387.646 690.62 387.675 689.485 387.675 688.06C387.675 686.334 387.646 684.758 387.589 683.333L387.471 680.379C387.442 679.634 387.378 679.115 387.277 678.821C387.12 678.356 386.862 677.937 386.504 677.564H392.187C393.92 677.564 395.173 677.736 395.946 678.08C396.763 678.438 397.171 679.05 397.171 679.917C397.171 680.676 396.888 681.389 396.322 682.055C395.792 682.671 395.098 683.161 394.238 683.526C394.346 686.276 395.209 688.915 396.827 691.443C397.522 692.539 398.231 693.391 398.954 694H394.926C394.224 693.04 393.576 691.096 392.981 688.167C392.781 687.15 392.648 686.305 392.584 685.632C392.527 684.959 392.477 684.554 392.434 684.418C392.398 684.275 392.337 684.16 392.251 684.074C392.079 683.888 391.768 683.795 391.316 683.795ZM393.787 681.883C393.988 681.668 394.127 681.439 394.206 681.195C394.292 680.952 394.335 680.719 394.335 680.497C394.335 680.268 394.303 680.042 394.238 679.82C394.181 679.591 394.063 679.391 393.884 679.219C393.49 678.832 392.802 678.639 391.821 678.639C391.456 678.639 391.159 678.653 390.93 678.682C390.708 678.71 390.532 678.789 390.403 678.918C390.181 679.133 390.07 679.681 390.07 680.562C390.07 681.335 390.153 681.829 390.317 682.044C390.611 682.424 391.055 682.613 391.649 682.613C392.244 682.613 392.699 682.545 393.014 682.409C393.336 682.266 393.594 682.09 393.787 681.883Z" fill="currentColor"/>
<path d="M391 287.5C391 198.582 325.918 128 237 128C148.082 128 82 195.082 82 284" stroke="currentColor" stroke-width="2"/>
<path d="M165.077 384.221L212.578 440.472L284.5 471L309.5 486L170.86 361.09L165.077 384.221ZM165.077 384.221L169.182 359.556L169 360L170.005 358.264L198.317 349.647L197.473 321.269L163.745 305.255L165.077 384.221ZM82 399.5L150 419.5L82 394M287.682 290.486L289.211 288.261L286.715 270.105L258.5 248M287.682 290.486L258.5 248M287.682 290.486L284.222 295.518L277.054 283.934L276.775 283.809L228.267 261.98L258.5 248M82 443L237.826 491.416L213.048 440.68L211.682 439.356L149.809 421.023L149.772 421.012L81.5 401M81.5 394L150.415 419.116L208.888 436.442L163.482 385.416L82 374M82 444.5L237 492.068M229.223 295.364L220.786 264.025L225.738 263.035L275.703 285.519L283.983 297.347L275.655 309.245L269.558 313.259L229.223 295.364ZM164.773 303.428L218.904 264.935L226.005 295.704L199.169 317.661L164.773 303.428ZM289.255 291.728V310.348L269.868 313.493L276.919 309.544L277.08 309.437L277.189 309.279L289.255 291.728ZM304.471 345.545L270.5 314.5L280.263 313.494L280.277 313.493L289.255 311.5L312.47 344.545L304.471 345.545ZM255.975 246.989L225.544 261.034L220.295 262.084L215.699 242.552L232.112 239.035L255.975 246.989ZM213.976 243.963L218.415 262.829L163.5 304.5L213.976 243.963ZM240 491.416L217.111 444.44L284.742 471.232L313.246 489.822V491.5L240 491.416ZM254.299 440.547L171.5 359L199.083 352.745L319.469 456.828L313.246 488.5L254.299 440.547Z" stroke="currentColor" stroke-width="2"/>
<path d="M365 364L365.99 491H362.01L363.5 364M363.991 283H364.009V296L363.991 283Z" stroke="currentColor" stroke-width="2"/>
<path d="M371 303C371 299.134 367.866 296 364 296C360.134 296 357 299.134 357 303V357C357 360.866 360.134 364 364 364C367.866 364 371 360.866 371 357V303Z" stroke="currentColor" stroke-width="2"/>
<path d="M83 493H390V489H83V493Z" fill="currentColor"/>
<path d="M391 92H82V631H391V92Z" stroke="currentColor" stroke-width="2" stroke-miterlimit="2.61313"/>
<path d="M376.56 163.085C377.441 162.173 378.537 161.517 379.876 161.042C378.472 160.532 377.31 159.875 376.386 158.982C375.596 158.217 375.013 157.314 374.592 156.254C374.172 157.298 373.622 158.198 372.881 158.963C372.002 159.872 370.899 160.543 369.537 161.056C370.918 161.534 372.045 162.187 372.941 163.099C373.743 163.915 374.321 164.898 374.744 166.057C375.185 164.893 375.767 163.904 376.56 163.085Z" stroke="currentColor" stroke-width="2"/>
<path d="M369.612 126.228C371.061 124.73 372.946 123.727 375.374 123.051C372.86 122.29 370.868 121.28 369.356 119.818C368.026 118.532 367.119 116.947 366.526 115C365.907 116.921 365.047 118.508 363.794 119.802C362.354 121.29 360.46 122.324 357.997 123.08C360.485 123.765 362.416 124.76 363.881 126.251C365.229 127.622 366.121 129.35 366.725 131.484C367.375 129.344 368.28 127.606 369.612 126.228Z" stroke="currentColor" stroke-width="2"/>
<path d="M346.97 144.994C347.642 144.301 348.443 143.766 349.392 143.346C348.469 142.995 347.684 142.536 347.045 141.92C346.512 141.406 346.106 140.809 345.804 140.128C345.445 140.864 345.003 141.517 344.447 142.09C343.775 142.782 342.966 143.328 342 143.772C342.903 144.109 343.664 144.569 344.283 145.201C344.823 145.751 345.224 146.399 345.522 147.143C345.903 146.324 346.373 145.609 346.97 144.994Z" stroke="currentColor" stroke-width="2"/>
<path d="M97.7678 162.605C96.8862 161.693 95.7909 161.037 94.4512 160.562C95.8555 160.052 97.0173 159.395 97.9415 158.502C98.7317 157.737 99.3149 156.834 99.7361 155.774C100.156 156.818 100.706 157.718 101.446 158.483C102.326 159.392 103.429 160.063 104.791 160.576C103.41 161.054 102.283 161.707 101.386 162.619C100.584 163.435 100.006 164.418 99.5838 165.577C99.1425 164.413 98.5605 163.424 97.7678 162.605Z" stroke="currentColor" stroke-width="2"/>
<path d="M104.716 125.748C103.267 124.25 101.381 123.247 98.9531 122.571C101.467 121.81 103.46 120.8 104.972 119.338C106.302 118.052 107.209 116.467 107.801 114.52C108.42 116.441 109.281 118.028 110.533 119.322C111.974 120.81 113.867 121.844 116.331 122.6C113.843 123.285 111.911 124.28 110.446 125.771C109.099 127.142 108.207 128.87 107.602 131.004C106.952 128.864 106.048 127.126 104.716 125.748Z" stroke="currentColor" stroke-width="2"/>
<path d="M127.358 144.514C126.686 143.821 125.885 143.286 124.936 142.866C125.859 142.515 126.643 142.056 127.282 141.44C127.816 140.926 128.221 140.329 128.523 139.648C128.883 140.384 129.324 141.037 129.881 141.61C130.553 142.302 131.361 142.848 132.328 143.292C131.424 143.629 130.663 144.089 130.044 144.721C129.505 145.271 129.103 145.919 128.805 146.663C128.424 145.844 127.954 145.129 127.358 144.514Z" stroke="currentColor" stroke-width="2"/>
</svg>
