<svg width="58" height="58" viewBox="0 0 58 58" fill="none" xmlns="http://www.w3.org/2000/svg">
<path d="M57.0005 29.2569C57.0005 44.5552 44.5992 56.9569 29.3015 56.9569C14.0038 56.9569 1.60254 44.5552 1.60254 29.2569C1.60254 13.9586 14.0038 1.55688 29.3015 1.55688C44.5992 1.55688 57.0005 13.9586 57.0005 29.2569Z" stroke="#2C3531" stroke-width="2"/>
<path d="M42.0774 10.7408V46.6248L16.5264 46.6248V15.3817L18.8559 13.0622L21.1871 10.7408L42.0774 10.7408Z" stroke="#2C3531" stroke-width="2"/>
<g clip-path="url(#clip0_1_1000)">
<path d="M25.2106 33.4291C24.3939 33.4291 23.6925 33.2498 23.1066 32.8911C22.5242 32.5324 22.075 32.037 21.7589 31.4049C21.4464 30.7693 21.2902 30.0378 21.2902 29.2103C21.2902 28.3794 21.45 27.6461 21.7696 27.0104C22.0892 26.3712 22.5402 25.874 23.1226 25.5189C23.7085 25.1603 24.401 24.9809 25.2 24.9809C25.864 24.9809 26.4518 25.1034 26.9631 25.3485C27.478 25.59 27.8882 25.9326 28.1936 26.3765C28.499 26.8169 28.673 27.3318 28.7156 27.9213H26.8726C26.798 27.5271 26.6204 27.1986 26.3399 26.9358C26.0629 26.6695 25.6918 26.5363 25.2266 26.5363C24.8324 26.5363 24.4862 26.6429 24.1879 26.8559C23.8896 27.0655 23.657 27.3673 23.4901 27.7615C23.3268 28.1557 23.2451 28.628 23.2451 29.1784C23.2451 29.7359 23.3268 30.2153 23.4901 30.6166C23.6535 31.0143 23.8825 31.3215 24.1773 31.5381C24.4756 31.7512 24.8253 31.8577 25.2266 31.8577C25.5107 31.8577 25.7646 31.8044 25.9883 31.6979C26.2156 31.5878 26.4056 31.4298 26.5583 31.2238C26.711 31.0179 26.8158 30.7675 26.8726 30.4728H28.7156C28.6694 31.0516 28.499 31.5647 28.2042 32.0122C27.9095 32.4561 27.5082 32.8041 27.0004 33.0562C26.4926 33.3048 25.896 33.4291 25.2106 33.4291ZM37.6072 25.0875L34.6935 33.2693H32.5628L29.6491 25.0875H31.7052L33.5855 31.1652H33.6708L35.5564 25.0875H37.6072Z" fill="#2C3531"/>
</g>
<defs>
<clipPath id="clip0_1_1000">
<rect width="22.9592" height="24.108" fill="white" transform="translate(18.9697 12.0369)"/>
</clipPath>
</defs>
</svg>
