<svg width="58" height="58" viewBox="0 0 58 58" fill="none" xmlns="http://www.w3.org/2000/svg">
<path d="M56.398 29.2569C56.398 44.5552 43.9967 56.9569 28.699 56.9569C13.4013 56.9569 1 44.5552 1 29.2569C1 13.9586 13.4013 1.55688 28.699 1.55688C43.9967 1.55688 56.398 13.9586 56.398 29.2569Z" stroke="#2C3531" stroke-width="2"/>
<path fill-rule="evenodd" clip-rule="evenodd" d="M45.9192 44.4939H38.3078V33.4875C38.3078 30.6066 37.1172 28.6399 34.4991 28.6399C32.4965 28.6399 31.3828 29.9671 30.8644 31.2461C30.67 31.7052 30.7004 32.3448 30.7004 32.9843V44.4939H23.1599C23.1599 44.4939 23.2571 24.9972 23.1599 23.2249H30.7004V26.5629C31.1459 25.1034 33.5554 23.0204 37.4007 23.0204C42.1712 23.0204 45.9192 26.0798 45.9192 32.6676V44.4939ZM15.5342 20.5645H15.4856C13.0558 20.5645 11.4805 18.9386 11.4805 16.8777C11.4805 14.7766 13.1024 13.1848 15.5808 13.1848C18.0572 13.1848 19.5799 14.7726 19.6285 16.8717C19.6285 18.9326 18.0572 20.5645 15.5342 20.5645ZM12.3491 23.2249H19.0615V44.4939H12.3491V23.2249Z" fill="#2C3531"/>
</svg>
