<svg width="602" height="1025" viewBox="0 0 602 1025" fill="none" xmlns="http://www.w3.org/2000/svg" shape-rendering="geometricPrecision">
<g filter="url(#filter0_d_70_39)">
<path fill-rule="evenodd" clip-rule="evenodd" d="M597.96 292.093C595.34 130.328 463.39 0 301 0C138.61 0 6.66013 130.328 4.03972 292.093H4V840.093H598V292.093H597.96ZM558 293.689C558 435.626 442.937 550.689 301 550.689C159.063 550.689 44 435.626 44 293.689C44 151.752 159.063 36.689 301 36.689C442.937 36.689 558 151.752 558 293.689Z" fill="#116466"/>
<path d="M312 839.093C308 794.093 371.5 799.593 366 839.093C360.5 878.593 363.79 901.284 366 939.093C366 939.093 309.499 972.093 312 939.093C314.5 906.093 316 884.093 312 839.093Z" fill="#116466"/>
<path d="M339 967.093C353.912 967.093 366 955.005 366 940.093C366 925.181 353.912 913.093 339 913.093C324.088 913.093 312 925.181 312 940.093C312 955.005 324.088 967.093 339 967.093Z" fill="#116466"/>
<path d="M182 839.174H135V901.545H182V839.174Z" fill="#116466"/>
<path d="M158.5 923.558C171.479 923.558 182 913.907 182 902.003C182 890.099 171.479 880.448 158.5 880.448C145.521 880.448 135 890.099 135 902.003C135 913.907 145.521 923.558 158.5 923.558Z" fill="#116466"/>
<path d="M158.5 958.495C162.642 958.495 166 955.415 166 951.616C166 947.817 162.642 944.737 158.5 944.737C154.358 944.737 151 947.817 151 951.616C151 955.415 154.358 958.495 158.5 958.495Z" fill="#116466"/>
<path d="M158.5 990.598C166.508 990.598 173 984.643 173 977.298C173 969.953 166.508 963.998 158.5 963.998C150.492 963.998 144 969.953 144 977.298C144 984.643 150.492 990.598 158.5 990.598Z" fill="#116466"/>
<path d="M54 969.419C81.6142 969.419 104 948.886 104 923.558C104 898.23 81.6142 877.697 54 877.697C26.3858 877.697 4 898.23 4 923.558C4 948.886 26.3858 969.419 54 969.419Z" fill="#116466"/>
<path d="M4 839.174H104V923.558H4V839.174Z" fill="#116466"/>
<path d="M182 840.174H135V902.545H182V840.174Z" fill="#116466"/>
<path d="M158.5 924.558C171.479 924.558 182 914.907 182 903.003C182 891.099 171.479 881.448 158.5 881.448C145.521 881.448 135 891.099 135 903.003C135 914.907 145.521 924.558 158.5 924.558Z" fill="#116466"/>
<path d="M104 839.174H135V852.015C135.5 843.301 106 837.339 104 850.639V839.174Z" fill="#116466"/>
<path d="M182 839.174H196C183.877 838.129 180.624 845.934 182 850.639V839.174Z" fill="#116466"/>
<path d="M267 840.093H313L315 877.093C313.194 851.886 302.263 843.835 267 840.093Z" fill="#116466"/>
<path d="M384 840.093H365L362.5 876.593C363.246 851.386 369.435 843.835 384 840.093Z" fill="#116466"/>
<path d="M598 839.093H573V1003.09H598V839.093Z" fill="#116466"/>
<path d="M585.5 1016.09C592.404 1016.09 598 1010.49 598 1003.59C598 996.686 592.404 991.09 585.5 991.09C578.596 991.09 573 996.686 573 1003.59C573 1010.49 578.596 1016.09 585.5 1016.09Z" fill="#116466"/>
<path d="M523 839.093H573L574 898.093C571.265 851.631 558.239 840.217 523 839.093Z" fill="#116466"/>
<path d="M465 884.093C494.823 884.093 519 859.693 519 829.593C519 799.493 494.823 775.093 465 775.093C435.177 775.093 411 799.493 411 829.593C411 859.693 435.177 884.093 465 884.093Z" fill="#116466"/>
<path d="M393 840.091H412.5L419 858.093C414.572 849.413 408.128 839.848 393 840.091Z" fill="#116466"/>
<path d="M532 840.098H518L511.5 854.592C517 848.093 516.872 839.855 532 840.098Z" fill="#116466"/>
</g>
<defs>
<filter id="filter0_d_70_39" x="0" y="0" width="602" height="1024.09" filterUnits="userSpaceOnUse" color-interpolation-filters="sRGB">
<feFlood flood-opacity="0" result="BackgroundImageFix"/>
<feColorMatrix in="SourceAlpha" type="matrix" values="0 0 0 0 0 0 0 0 0 0 0 0 0 0 0 0 0 0 127 0" result="hardAlpha"/>
<feOffset dy="4"/>
<feGaussianBlur stdDeviation="2"/>
<feComposite in2="hardAlpha" operator="out"/>
<feColorMatrix type="matrix" values="0 0 0 0 0 0 0 0 0 0 0 0 0 0 0 0 0 0 0.25 0"/>
<feBlend mode="normal" in2="BackgroundImageFix" result="effect1_dropShadow_70_39"/>
<feBlend mode="normal" in="SourceGraphic" in2="effect1_dropShadow_70_39" result="shape"/>
</filter>
</defs>
</svg>
