<svg width="594" height="1017" viewBox="0 0 594 1017" fill="none" xmlns="http://www.w3.org/2000/svg">
<path fill-rule="evenodd" clip-rule="evenodd" d="M593.96 292.093C591.34 130.328 459.39 0 297 0C134.61 0 2.66013 130.328 0.0397178 292.093H0V840.093H594V292.093H593.96ZM554 293.689C554 435.626 438.937 550.689 297 550.689C155.063 550.689 40 435.626 40 293.689C40 151.752 155.063 36.689 297 36.689C438.937 36.689 554 151.752 554 293.689Z" fill="#116466"/>
<path d="M308 839.093C304 794.093 367.5 799.593 362 839.093C356.5 878.593 359.79 901.284 362 939.093C362 939.093 305.499 972.093 308 939.093C310.5 906.093 312 884.093 308 839.093Z" fill="#116466"/>
<path d="M335 967.093C349.912 967.093 362 955.005 362 940.093C362 925.181 349.912 913.093 335 913.093C320.088 913.093 308 925.181 308 940.093C308 955.005 320.088 967.093 335 967.093Z" fill="#116466"/>
<path d="M178 839.174H131V901.545H178V839.174Z" fill="#116466"/>
<path d="M154.5 923.558C167.479 923.558 178 913.907 178 902.003C178 890.099 167.479 880.448 154.5 880.448C141.521 880.448 131 890.099 131 902.003C131 913.907 141.521 923.558 154.5 923.558Z" fill="#116466"/>
<path d="M154.5 958.495C158.642 958.495 162 955.415 162 951.616C162 947.817 158.642 944.737 154.5 944.737C150.358 944.737 147 947.817 147 951.616C147 955.415 150.358 958.495 154.5 958.495Z" fill="#116466"/>
<path d="M154.5 990.598C162.508 990.598 169 984.643 169 977.298C169 969.953 162.508 963.998 154.5 963.998C146.492 963.998 140 969.953 140 977.298C140 984.643 146.492 990.598 154.5 990.598Z" fill="#116466"/>
<path d="M50 969.419C77.6142 969.419 100 948.886 100 923.558C100 898.23 77.6142 877.697 50 877.697C22.3858 877.697 0 898.23 0 923.558C0 948.886 22.3858 969.419 50 969.419Z" fill="#116466"/>
<path d="M0 839.174H100V923.558H0V839.174Z" fill="#116466"/>
<path d="M178 840.174H131V902.545H178V840.174Z" fill="#116466"/>
<path d="M154.5 924.558C167.479 924.558 178 914.907 178 903.003C178 891.099 167.479 881.448 154.5 881.448C141.521 881.448 131 891.099 131 903.003C131 914.907 141.521 924.558 154.5 924.558Z" fill="#116466"/>
<path d="M100 839.174H131V852.015C131.5 843.301 102 837.339 100 850.639V839.174Z" fill="#116466"/>
<path d="M178 839.174L192 839.174C179.877 838.129 176.624 845.934 178 850.639L178 839.174Z" fill="#116466"/>
<path d="M263 840.093H309L311 877.093C309.194 851.886 298.263 843.835 263 840.093Z" fill="#116466"/>
<path d="M380 840.093H361L358.5 876.593C359.246 851.386 365.435 843.835 380 840.093Z" fill="#116466"/>
<path d="M594 839.093H569V1003.09H594V839.093Z" fill="#116466"/>
<path d="M581.5 1016.09C588.404 1016.09 594 1010.49 594 1003.59C594 996.687 588.404 991.09 581.5 991.09C574.596 991.09 569 996.687 569 1003.59C569 1010.49 574.596 1016.09 581.5 1016.09Z" fill="#116466"/>
<path d="M519 839.093H569L570 898.093C567.265 851.631 554.239 840.217 519 839.093Z" fill="#116466"/>
<path d="M461 884.093C490.823 884.093 515 859.693 515 829.593C515 799.493 490.823 775.093 461 775.093C431.177 775.093 407 799.493 407 829.593C407 859.693 431.177 884.093 461 884.093Z" fill="#116466"/>
<path d="M389 840.091H408.5L415 858.093C410.572 849.413 404.128 839.848 389 840.091Z" fill="#116466"/>
<path d="M528 840.098H514L507.5 854.592C513 848.093 512.872 839.855 528 840.098Z" fill="#116466"/>
</svg>
