<svg width="64" height="58" viewBox="0 0 64 58" fill="none" xmlns="http://www.w3.org/2000/svg">
<g clip-path="url(#clip0_1_989)">
<path fill-rule="evenodd" clip-rule="evenodd" d="M31.9435 0.556885C49.2251 0.556885 63.2337 13.73 63.2337 29.9828C63.2337 42.981 54.2785 54.0076 41.8531 57.9022C40.2667 58.1921 39.7035 57.2732 39.7035 56.4897C39.7035 55.5196 39.741 52.3512 39.741 48.4136C39.741 45.6699 38.7398 43.8791 37.6164 42.9665C44.5848 42.2375 51.9067 39.749 51.9067 28.4469C51.9067 25.2325 50.6926 22.6094 48.6838 20.5488C49.0092 19.8055 50.0824 16.8124 48.3771 12.76C48.3771 12.76 45.755 11.9715 39.7817 15.7771C37.2816 15.1256 34.6032 14.7978 31.9435 14.7864C29.2839 14.7978 26.6085 15.1256 24.1116 15.7771C18.132 11.9715 15.5037 12.76 15.5037 12.76C13.8046 16.8124 14.8779 19.8055 15.2001 20.5488C13.2007 22.6094 11.9773 25.2325 11.9773 28.4469C11.9773 39.7203 19.2835 42.247 26.2331 42.9903C25.3382 43.725 24.5277 45.0211 24.2461 46.9239C22.4626 47.6759 17.9318 48.9772 15.1407 44.4799C15.1407 44.4799 13.4854 41.6526 10.3439 41.446C10.3439 41.446 7.2931 41.4088 10.1311 43.2341C10.1311 43.2341 12.1806 44.1382 13.6043 47.5391C13.6043 47.5391 15.4411 52.7911 24.146 51.0117C24.1617 53.4713 24.1898 55.7894 24.1898 56.4897C24.1898 57.2674 23.6141 58.1777 22.0527 57.905C9.61795 54.0162 0.65332 42.9839 0.65332 29.9828C0.65332 13.73 14.6651 0.556885 31.9435 0.556885Z" fill="#2C3531"/>
</g>
<defs>
<clipPath id="clip0_1_989">
<rect width="62.5804" height="57.4" fill="white" transform="translate(0.65332 0.556885)"/>
</clipPath>
</defs>
</svg>
